<svg xmlns="http://www.w3.org/2000/svg" width="27.002" height="21" viewBox="0 0 27.002 21">
  <g id="car-svgrepo-com" transform="translate(0 -4.8)">
    <path id="Path_40" data-name="Path 40" d="M5.828,15.467a2.094,2.094,0,1,0,2.094,2.094,2.1,2.1,0,0,0-2.094-2.094Zm0,3.141a1.047,1.047,0,1,1,1.047-1.047A1.05,1.05,0,0,1,5.828,18.608Z" transform="translate(-0.069 -0.777)" fill="#444"/>
    <path id="Path_41" data-name="Path 41" d="M22.894,15.467a2.094,2.094,0,1,0,2.094,2.094,2.1,2.1,0,0,0-2.094-2.094Zm0,3.141a1.047,1.047,0,1,1,1.047-1.047A1.05,1.05,0,0,1,22.894,18.608Z" transform="translate(-1.653 -0.777)" fill="#444"/>
    <path id="Path_42" data-name="Path 42" d="M23.55,10.8l-.85-4a2.6,2.6,0,0,0-2.7-2H7a2.494,2.494,0,0,0-2.6,2l-.9,4H0v1H3.25v.05a2.965,2.965,0,0,0-2.75,3V21.8H2v1.5a2.476,2.476,0,0,0,2.5,2.5A2.475,2.475,0,0,0,7,23.3V21.8H20v1.5a2.5,2.5,0,0,0,5,0V21.8h1.5V14.85a3.032,3.032,0,0,0-2.7-3V11.8H27v-1h-3.45ZM5.35,7.1A1.566,1.566,0,0,1,7,5.8H20a1.61,1.61,0,0,1,1.75,1.25l1,4.8H4.252l1.1-4.75ZM6,23.3a1.473,1.473,0,0,1-1.5,1.5A1.473,1.473,0,0,1,3,23.3V21.8H6Zm18,0a1.5,1.5,0,0,1-3,0V21.8h3Zm1.5-8.45V20.8H1.5V14.85a2.006,2.006,0,0,1,2-2h20a2.006,2.006,0,0,1,2,2Z" transform="translate(0 0)" fill="#444"/>
  </g>
</svg>
