<svg xmlns="http://www.w3.org/2000/svg" width="17.002" height="16.742" viewBox="0 0 17.002 16.742">
  <g id="history-svgrepo-com" transform="translate(-3.5 -3.63)">
    <path id="Path_9" data-name="Path 9" d="M18.05,6.08a8.39,8.39,0,0,0-11.84,0L5,7.29V4.38a.75.75,0,0,0-1.5,0V9.12a.76.76,0,0,0,.75.76H9a.75.75,0,0,0,0-1.5H6L7.27,7.14a6.88,6.88,0,0,1,9.72,0c6.19,6.69-3,15.91-9.72,9.72a.75.75,0,0,0-1.06,0,.74.74,0,0,0,0,1.06A8.372,8.372,0,0,0,18.05,6.08Z" fill="#444"/>
    <path id="Path_10" data-name="Path 10" d="M12,7.75a.76.76,0,0,0-.75.75V12a.75.75,0,0,0,.22.53L14,15a.74.74,0,0,0,.53.22A.75.75,0,0,0,15,14l-2.28-2.28V8.5A.76.76,0,0,0,12,7.75Z" fill="#444"/>
  </g>
</svg>
