<svg id="Page-1" xmlns="http://www.w3.org/2000/svg" width="20" height="20" viewBox="0 0 20 20">
  <g id="Icon-Set">
    <path id="grid" d="M120.571,938.714a1.429,1.429,0,0,1-1.429,1.429h-2.857a1.429,1.429,0,0,1-1.429-1.429v-2.857a1.429,1.429,0,0,1,1.429-1.429h2.857a1.429,1.429,0,0,1,1.429,1.429v2.857ZM119.143,933h-2.857a2.857,2.857,0,0,0-2.857,2.857v2.857a2.857,2.857,0,0,0,2.857,2.857h2.857A2.857,2.857,0,0,0,122,938.714v-2.857A2.857,2.857,0,0,0,119.143,933Zm1.429,17.143a1.429,1.429,0,0,1-1.429,1.428h-2.857a1.429,1.429,0,0,1-1.429-1.428v-2.857a1.429,1.429,0,0,1,1.429-1.429h2.857a1.429,1.429,0,0,1,1.429,1.429v2.857Zm-1.429-5.714h-2.857a2.857,2.857,0,0,0-2.857,2.857v2.857A2.857,2.857,0,0,0,116.286,953h2.857A2.857,2.857,0,0,0,122,950.143v-2.857a2.857,2.857,0,0,0-2.857-2.857Zm-10-5.714a1.429,1.429,0,0,1-1.429,1.429h-2.857a1.429,1.429,0,0,1-1.429-1.429v-2.857a1.429,1.429,0,0,1,1.429-1.429h2.857a1.429,1.429,0,0,1,1.429,1.429v2.857ZM107.714,933h-2.857A2.857,2.857,0,0,0,102,935.857v2.857a2.857,2.857,0,0,0,2.857,2.857h2.857a2.857,2.857,0,0,0,2.857-2.857v-2.857A2.857,2.857,0,0,0,107.714,933Zm1.429,17.143a1.429,1.429,0,0,1-1.429,1.428h-2.857a1.429,1.429,0,0,1-1.429-1.428v-2.857a1.429,1.429,0,0,1,1.429-1.429h2.857a1.429,1.429,0,0,1,1.429,1.429v2.857Zm-1.429-5.714h-2.857A2.857,2.857,0,0,0,102,947.286v2.857A2.857,2.857,0,0,0,104.857,953h2.857a2.857,2.857,0,0,0,2.857-2.857v-2.857a2.857,2.857,0,0,0-2.857-2.857Z" transform="translate(-102 -933)" fill="#444" fill-rule="evenodd"/>
  </g>
</svg>
