<svg xmlns="http://www.w3.org/2000/svg" width="34" height="34" viewBox="0 0 34 34">
  <g id="Group_139" data-name="Group 139" transform="translate(0 -0.308)">
    <circle id="Ellipse_5" data-name="Ellipse 5" cx="17" cy="17" r="17" transform="translate(0 0.308)" fill="#f5f5f5"/>
    <path id="phone-svgrepo-com" d="M16.1,13.359l-.529-.532h0Zm.455-.453.529.532h0Zm2.417-.317-.358.659Zm1.911,1.039-.358.659Zm.538,3.255.529.532ZM20,18.3l-.529-.532Zm-1.325.67.07.747h0ZM8.815,14.727l.529-.532ZM4,5.746l-.749.043h0ZM10.477,7.2l.529.532h0Zm.157-2.654.6-.449ZM9.373,2.859l-.6.449h0ZM6.261,2.575l.529.532h0ZM4.692,4.136,4.163,3.6h0ZM12.063,11.5l.529-.532Zm4.566,2.394.455-.453-1.058-1.064-.455.453Zm1.985-.643,1.911,1.039.716-1.318-1.911-1.039Zm2.278,3.1-1.421,1.412,1.058,1.064,1.421-1.412Zm-2.286,1.867c-1.45.135-5.2.015-9.263-4.024L8.287,15.258c4.432,4.407,8.65,4.622,10.459,4.454ZM9.344,14.195C5.473,10.345,4.832,7.108,4.752,5.7l-1.5.085c.1,1.768.895,5.356,5.032,9.47Zm1.375-6.18.287-.285L9.949,6.666l-.287.285Zm.515-3.92L9.974,2.41l-1.2.9,1.261,1.684Zm-5.5-2.051L4.163,3.6,5.221,4.667,6.79,3.107Zm4.458,5.44c-.529-.532-.53-.531-.53-.53h0l0,0-.006.006-.014.015L9.6,7.014a1.232,1.232,0,0,0-.075.1,1.527,1.527,0,0,0-.163.318A2.1,2.1,0,0,0,9.278,8.5a6.9,6.9,0,0,0,2.257,3.526l1.058-1.064A5.6,5.6,0,0,1,10.76,8.273a.626.626,0,0,1,.01-.312c.005-.014.008-.015,0-.006l-.017.022-.015.017L10.73,8l-.005.005,0,0h0S10.719,8.014,10.191,7.483Zm1.344,4.547a6.95,6.95,0,0,0,3.542,2.242,2.121,2.121,0,0,0,1.071-.087,1.536,1.536,0,0,0,.319-.161,1.224,1.224,0,0,0,.1-.075l.036-.031.015-.014.007-.006,0,0h0s0,0-.527-.533-.528-.533-.527-.533h0l0,0,.005-.005.01-.009.017-.014.022-.017c.009-.006.007,0-.007,0a.65.65,0,0,1-.32.01,5.641,5.641,0,0,1-2.712-1.823ZM9.974,2.41a2.825,2.825,0,0,0-4.241-.367L6.79,3.107a1.326,1.326,0,0,1,1.983.2ZM4.752,5.7a1.375,1.375,0,0,1,.469-1.036L4.163,3.6a2.864,2.864,0,0,0-.909,2.184ZM19.472,17.764a1.437,1.437,0,0,1-.866.455l.139,1.494a2.927,2.927,0,0,0,1.784-.885ZM11.006,7.729a2.773,2.773,0,0,0,.228-3.635l-1.2.9a1.273,1.273,0,0,1-.085,1.673Zm9.519,6.558a1.31,1.31,0,0,1,.368,2.064l1.058,1.064a2.809,2.809,0,0,0-.709-4.446Zm-3.44-.849a1.29,1.29,0,0,1,1.53-.19l.716-1.318a2.789,2.789,0,0,0-3.3.444Z" transform="translate(3.75 6.495)" fill="#444"/>
  </g>
</svg>
