<svg xmlns="http://www.w3.org/2000/svg" width="37.978" height="31.987" viewBox="0 0 37.978 31.987">
  <g id="envelope-svgrepo-com_1_" data-name="envelope-svgrepo-com (1)" transform="translate(-0.011 -0.013)">
    <path id="Path_81" data-name="Path 81" d="M20.06.413a1.6,1.6,0,0,0-2.119,0L.253,11.084a.5.5,0,0,0-.242.428V30.434A1.572,1.572,0,0,0,1.585,32h34.83a1.572,1.572,0,0,0,1.574-1.566V11.512a.5.5,0,0,0-.242-.428ZM18.5,1.24a.527.527,0,0,0,.095-.074.566.566,0,0,1,.8,0,.564.564,0,0,0,.095.074L36.722,11.634,24.244,19.07A.5.5,0,0,0,24.5,20a.493.493,0,0,0,.255-.07L37,12.64V30.4L20.065,19.131a1.915,1.915,0,0,0-2.1-.025L1,30.392V12.64l12.244,7.29a.5.5,0,0,0,.512-.86L1.277,11.634ZM36.09,31H1.9L18.558,19.914a1,1,0,0,1,.919.025Z" fill="#1c274c"/>
    <path id="Path_82" data-name="Path 82" d="M6.5,13h25a.5.5,0,0,0,0-1H6.5a.5.5,0,0,0,0,1Z" fill="#1c274c"/>
  </g>
</svg>
