<svg xmlns="http://www.w3.org/2000/svg" width="35.567" height="35.565" viewBox="0 0 35.567 35.565">
  <g id="phone-calling-rounded-svgrepo-com" transform="translate(-3.248 -1.185)">
    <path id="Path_78" data-name="Path 78" d="M14,2s4.156.378,9.444,5.667,5.667,9.444,5.667,9.444" transform="translate(8.889)" fill="none" stroke="#1c274c" stroke-linecap="round" stroke-width="1.5"/>
    <path id="Path_79" data-name="Path 79" d="M14.207,5.536s1.87.534,4.675,3.339,3.339,4.675,3.339,4.675" transform="translate(9.073 3.143)" fill="none" stroke="#1c274c" stroke-linecap="round" stroke-width="1.5"/>
    <path id="Path_80" data-name="Path 80" d="M4.012,11.429c-.137,3.6.776,9.725,6.916,15.865a26.74,26.74,0,0,0,4.405,3.59M6.9,5.77c2.631-2.631,6.829-2.278,8.5.716l1.226,2.2a5.349,5.349,0,0,1-1.08,6.325h0s-2.113,2.114,1.719,5.946,5.944,1.72,5.946,1.719h0a5.349,5.349,0,0,1,6.325-1.08l2.2,1.226c2.994,1.671,3.347,5.868.716,8.5a8.759,8.759,0,0,1-5.659,2.892A18.5,18.5,0,0,1,21,33.488" transform="translate(0 1.778)" fill="none" stroke="#1c274c" stroke-linecap="round" stroke-width="1.5"/>
  </g>
</svg>
