<svg xmlns="http://www.w3.org/2000/svg" width="50" height="50" viewBox="0 0 50 50">
  <g id="Group_220" data-name="Group 220" transform="translate(-17 -15)">
    <circle id="Ellipse_4" data-name="Ellipse 4" cx="25" cy="25" r="25" transform="translate(17 15)" fill="#fff5f5"/>
    <path id="bell-notification-svgrepo-com" d="M12.1,3a4.972,4.972,0,0,0-5.15,4.774v2.444a1.728,1.728,0,0,1-.2.746,5.313,5.313,0,0,1-.331.563c-.252.38-.588.826-.947,1.276a1.984,1.984,0,0,0-.412,1.759,1.321,1.321,0,0,0,1.118.972A36.283,36.283,0,0,0,12.1,16a30.4,30.4,0,0,0,5.911-.52,1.134,1.134,0,0,0,.916-.794,1.861,1.861,0,0,0-.25-1.526c-.162-.26-.336-.525-.511-.791l-.054-.082c-.155-.235-.311-.472-.451-.693-.153-.243-.3-.491-.416-.718A2.037,2.037,0,0,1,17,10V7.712A4.7,4.7,0,0,0,12.1,3ZM4.955,7.774A6.97,6.97,0,0,1,12.1,1,6.7,6.7,0,0,1,19,7.712V9.9c.008.019.021.046.038.082.068.135.174.316.318.544.128.2.273.423.43.661l.053.081c.175.266.361.55.538.833a3.855,3.855,0,0,1,.457,3.193,3.13,3.13,0,0,1-2.43,2.146A32.378,32.378,0,0,1,12.1,18a38.272,38.272,0,0,1-6.25-.493,3.318,3.318,0,0,1-2.714-2.4,3.981,3.981,0,0,1,.771-3.555c.345-.433.639-.824.842-1.132a3.534,3.534,0,0,0,.2-.335Zm.029,2.25a.078.078,0,0,1,0,.014A.087.087,0,0,1,4.984,10.025Zm10.8,9.356a1,1,0,0,1-.166,1.4,6,6,0,0,1-7.239,0,1,1,0,0,1,1.24-1.569,4,4,0,0,0,4.761,0A1,1,0,0,1,15.785,19.381Z" transform="translate(30 29)" fill="#da6262" fill-rule="evenodd"/>
    <circle id="Ellipse_23" data-name="Ellipse 23" cx="4" cy="4" r="4" transform="translate(56 19)" fill="red"/>
  </g>
</svg>
