<svg xmlns="http://www.w3.org/2000/svg" width="19.537" height="21.5" viewBox="0 0 19.537 21.5">
  <g id="bell-svgrepo-com" transform="translate(-2.232 -1.25)">
    <path id="Path_43" data-name="Path 43" d="M18.749,9.71V9A6.881,6.881,0,0,0,12,2,6.881,6.881,0,0,0,5.251,9v.7a4.4,4.4,0,0,1-.693,2.376L3.45,13.809a2.807,2.807,0,0,0,1.52,4.213,25.775,25.775,0,0,0,14.059,0,2.807,2.807,0,0,0,1.52-4.213l-1.107-1.724A4.4,4.4,0,0,1,18.749,9.71Z" fill="none" stroke="#444" stroke-width="1.5"/>
    <path id="Path_44" data-name="Path 44" d="M7.5,19A4.764,4.764,0,0,0,12,22a4.764,4.764,0,0,0,4.5-3" fill="none" stroke="#444" stroke-linecap="round" stroke-width="1.5"/>
  </g>
</svg>
