<svg xmlns="http://www.w3.org/2000/svg" width="21.015" height="20.514" viewBox="0 0 21.015 20.514">
  <g id="wash-hands-svgrepo-com" transform="translate(-5.946 -6.333)">
    <path id="Path_84" data-name="Path 84" d="M14.173,26.891l-.1.573.1-.573.01,0,.01,0,3.869.852.025.005.024.008h0l.006,0,.027.008.11.031c.1.026.235.062.4.1a5.753,5.753,0,0,0,1.155.139,1.023,1.023,0,0,1,.939.5,1.2,1.2,0,0,1,.069.9,2.473,2.473,0,0,1-.443.847c.295-.109.617-.239.963-.378l.037-.015a15.48,15.48,0,0,1,3.056-.993,2.066,2.066,0,0,1,2.325.936,1.744,1.744,0,0,1-.247,2A3.122,3.122,0,0,1,26,32.21c-.205.131-.458.278-.739.434-.563.313-1.259.673-1.958,1.021-1.385.689-2.836,1.359-3.3,1.525a5.943,5.943,0,0,1-2.546.109l-.077-.008c-.251-.025-.5-.05-.76-.069a11.686,11.686,0,0,1-2.779-.6l-.014,0a9.69,9.69,0,0,0-2.688-.55c-.144-.006-.436,0-.781.008a1.748,1.748,0,0,1-1.691,1.307H7.693a1.747,1.747,0,0,1-1.747-1.747V28.521a1.747,1.747,0,0,1,1.747-1.747h.979a1.746,1.746,0,0,1,1.485.827c.741-.263,1.544-.554,1.8-.668a2.11,2.11,0,0,1,.727-.152,5.369,5.369,0,0,1,.7.012c.216.016.413.041.555.061l.171.026.048.008.014,0h.006ZM15.4,30.627l-.1.573.109-1.156,3.123.037h.02a.81.81,0,0,0,.125-.023,1.739,1.739,0,0,0,.561-.273,1.23,1.23,0,0,0,.279-.293,1.377,1.377,0,0,0,.158-.292,7.157,7.157,0,0,1-1.26-.163c-.19-.041-.349-.081-.463-.112l-.134-.038-.027-.008-3.834-.844h0l-.038-.006-.145-.022c-.124-.018-.294-.039-.478-.053a4.227,4.227,0,0,0-.542-.011,1.042,1.042,0,0,0-.317.053c-.375.168-1.608.606-2.417.89l-.658.231-.11-.689a.583.583,0,0,0-.575-.489H7.693a.582.582,0,0,0-.582.582v5.114a.582.582,0,0,0,.582.582h.979a.582.582,0,0,0,.582-.582v-.688l.562-.019c.527-.018,1.109-.034,1.373-.023a10.765,10.765,0,0,1,2.973.6l.015,0a10.62,10.62,0,0,0,2.533.555c.273.02.537.046.785.071h0a5.156,5.156,0,0,0,2.115-.038c.386-.139,1.776-.777,3.171-1.471.691-.344,1.37-.7,1.911-1,.271-.151.5-.286.68-.4a2.286,2.286,0,0,0,.309-.22.591.591,0,0,0,.04-.635c-.092-.177-.357-.447-1.106-.326a14.707,14.707,0,0,0-2.844.938l-.012,0c-.49.2-.977.393-1.408.535a3.562,3.562,0,0,1-1.243.231c-.548-.032-1.514-.175-2.317-.3-.407-.065-.782-.128-1.054-.175l-.324-.056-.089-.016-.023,0H15.3Zm4.312-1.586h0Z" transform="translate(0 -8.535)" fill="#0072c6" fill-rule="evenodd"/>
    <path id="Path_85" data-name="Path 85" d="M22.5,13.97l-.459.359-.453-.366.461-.571Zm-.464,1.338c-.076.108-.156.224-.236.345a7.153,7.153,0,0,0-.462.795,1.462,1.462,0,0,0-.17.5.874.874,0,1,0,1.747,0,1.485,1.485,0,0,0-.169-.475,7.8,7.8,0,0,0-.465-.8C22.195,15.544,22.112,15.421,22.033,15.308Zm.006-.979-.453-.366,0,0,0,0-.014.017-.049.062c-.042.054-.1.13-.172.225-.141.188-.331.45-.521.739a8.278,8.278,0,0,0-.539.93A2.459,2.459,0,0,0,20,16.949a2.038,2.038,0,1,0,4.077,0,2.411,2.411,0,0,0-.286-.983,8.942,8.942,0,0,0-.536-.928c-.19-.292-.378-.558-.519-.75-.071-.1-.13-.175-.171-.23l-.049-.064-.013-.017,0,0,0,0Z" transform="translate(-5.869 -2.947)" fill="#0072c6" fill-rule="evenodd"/>
    <path id="Path_86" data-name="Path 86" d="M32.669,6.955,32.2,7.3l-.466-.349.466-.621ZM32.2,8.3c-.232.334-.524.768-.816,1.237a15.136,15.136,0,0,0-.867,1.57,3.211,3.211,0,0,0-.356,1.144,2.038,2.038,0,1,0,4.077,0,3.211,3.211,0,0,0-.356-1.144,15.137,15.137,0,0,0-.867-1.57C32.728,9.071,32.436,8.637,32.2,8.3Zm0-1-.466-.349,0,0-.006.008L31.706,7l-.086.117c-.073.1-.178.246-.3.424-.25.356-.584.848-.919,1.388a16.264,16.264,0,0,0-.935,1.7A4.221,4.221,0,0,0,29,12.255a3.2,3.2,0,1,0,6.407,0,4.221,4.221,0,0,0-.463-1.632,16.264,16.264,0,0,0-.935-1.7c-.335-.54-.669-1.032-.919-1.388-.125-.178-.23-.323-.3-.424L32.7,7l-.023-.031-.006-.008,0,0Z" transform="translate(-9.627 0)" fill="#0072c6" fill-rule="evenodd"/>
  </g>
</svg>
