<svg xmlns="http://www.w3.org/2000/svg" width="72" height="72" viewBox="0 0 72 72">
  <g id="Group_327" data-name="Group 327" transform="translate(-41 -133)">
    <circle id="Ellipse_12" data-name="Ellipse 12" cx="36" cy="36" r="36" transform="translate(41 133)" fill="#f69008"/>
    <g id="diamond-svgrepo-com" transform="translate(47 146)">
      <path id="Path_28" data-name="Path 28" d="M95.52,224.3H85.957l-7.285,10.019,16.711,16.391.688-.676,16.021-15.716L104.81,224.3Zm7.675,1.969-1.345,5.977-4.76-5.977Zm-7.879.569,5.179,6.5H90.247Zm-1.766-.569-4.642,5.952h0l-1.337-5.954H93.55ZM86.063,227.5h0l1.312,5.838H81.818Zm1.842,7.582,4.6,10.045L82.259,235.079Zm7.479,12.156-5.562-12.156h11.123Zm2.882-2.111,4.6-10.045H108.5Zm5.125-11.789L104.7,227.5h0l4.244,5.838Z" transform="translate(-65.093 -203.707)" fill="#fff"/>
      <path id="Path_29" data-name="Path 29" d="M398.563,131.757c-2.378,0-3.2-.6-3.663-1.059s-1.058-1.285-1.058-3.663c0-.09-.009-.347-.293-.347s-.293.257-.293.347c0,2.378-.6,3.2-1.06,3.663s-1.287,1.059-3.662,1.059c-.092,0-.347.01-.347.294s.255.293.347.293c2.375,0,3.2.6,3.662,1.06s1.06,1.285,1.06,3.663c0,.092.01.346.293.346s.293-.254.293-.346c0-2.378.6-3.2,1.058-3.663s1.285-1.06,3.663-1.06c.092,0,.347-.009.347-.294S398.655,131.757,398.563,131.757Z" transform="translate(-346.195 -115.058)" fill="#fff"/>
      <path id="Path_30" data-name="Path 30" d="M111.179,7.771c3.269,0,4.4.823,5.035,1.457S117.67,11,117.67,14.264a.408.408,0,0,0,.4.475c.39,0,.4-.35.4-.475,0-3.269.822-4.4,1.457-5.036s1.764-1.457,5.035-1.457c.125,0,.476-.011.476-.4a.409.409,0,0,0-.476-.4c-3.27,0-4.4-.82-5.035-1.454s-1.457-1.766-1.457-5.035c0-.125-.011-.476-.4-.476a.409.409,0,0,0-.4.476c0,3.269-.82,4.4-1.456,5.035s-1.766,1.454-5.035,1.454a.408.408,0,0,0-.476.4C110.7,7.757,111.054,7.771,111.179,7.771Z" transform="translate(-94.183)" fill="#fff"/>
      <path id="Path_31" data-name="Path 31" d="M16.864,147.212c0-.26-.235-.27-.318-.27-2.187,0-2.945-.549-3.369-.974s-.975-1.182-.975-3.369c0-.083-.009-.318-.27-.318a.273.273,0,0,0-.27.318c0,2.187-.549,2.943-.974,3.369s-1.183.974-3.369.974c-.085,0-.318.01-.318.27s.234.27.318.27c2.186,0,2.943.551,3.369.975s.974,1.182.974,3.371a.272.272,0,0,0,.27.317c.261,0,.27-.234.27-.317,0-2.189.551-2.946.975-3.371s1.182-.975,3.369-.975C16.629,147.482,16.864,147.473,16.864,147.212Z" transform="translate(0 -129.22)" fill="#fff"/>
    </g>
  </g>
</svg>
