<svg xmlns="http://www.w3.org/2000/svg" width="72" height="72" viewBox="0 0 72 72">
  <g id="Group_326" data-name="Group 326" transform="translate(-41 -133)">
    <circle id="Ellipse_12" data-name="Ellipse 12" cx="36" cy="36" r="36" transform="translate(41 133)" fill="#8a8a8a"/>
    <g id="Layer_3" data-name="Layer 3" transform="translate(55.78 148.39)">
      <path id="Path_22" data-name="Path 22" d="M4.979,13.82a1.88,1.88,0,1,0-.555,1.334,1.88,1.88,0,0,0,.555-1.334Z" transform="translate(0 1.577)" fill="#fff"/>
      <path id="Path_23" data-name="Path 23" d="M37.026,17.744a23.2,23.2,0,0,0-5.42,1.784,26.632,26.632,0,0,0-4.119,2.619,22.281,22.281,0,0,1-2.071-3.492A61.532,61.532,0,0,1,22.1,9.063a1.22,1.22,0,0,0-2.367,0,60.318,60.318,0,0,1-3.314,9.591,21.4,21.4,0,0,1-2.083,3.492,26.632,26.632,0,0,0-4.119-2.619A23.551,23.551,0,0,0,4.8,17.744a1.155,1.155,0,0,0-1.183.486,1.3,1.3,0,0,0-.107,1.31A64.994,64.994,0,0,1,8.634,36.864,1.2,1.2,0,0,0,9.818,37.9h22.25a1.2,1.2,0,0,0,1.183-1.035A65.045,65.045,0,0,1,38.293,19.54a1.3,1.3,0,0,0-.107-1.31A1.155,1.155,0,0,0,37.026,17.744ZM31.085,35.405h-20.3A72.3,72.3,0,0,0,6.764,20.8a18.049,18.049,0,0,1,2.473.973,23.546,23.546,0,0,1,4.556,3.056,1.141,1.141,0,0,0,1.645-.112,24.18,24.18,0,0,0,3.16-4.989,55.9,55.9,0,0,0,2.367-6.1,53.689,53.689,0,0,0,2.367,6.1,24.989,24.989,0,0,0,3.148,4.989,1.141,1.141,0,0,0,1.657.112,22.616,22.616,0,0,1,4.556-3.056,16.926,16.926,0,0,1,2.473-.973,71.505,71.505,0,0,0-4.083,14.605Z" transform="translate(0.761 -0.071)" fill="#fff"/>
      <circle id="Ellipse_14" data-name="Ellipse 14" cx="1.88" cy="1.88" r="1.88" transform="translate(38.441 13.517)" fill="#fff"/>
      <path id="Path_24" data-name="Path 24" d="M18.706,7.369A1.88,1.88,0,1,0,16.84,5.49a1.88,1.88,0,0,0,1.866,1.88Z" transform="translate(3.002 0)" fill="#fff"/>
      <path id="Path_25" data-name="Path 25" d="M18.625,26.34a1.5,1.5,0,1,0,1.487,1.487A1.5,1.5,0,0,0,18.625,26.34Z" transform="translate(3.099 3.835)" fill="#fff"/>
      <path id="Path_26" data-name="Path 26" d="M12.974,26.34a1.5,1.5,0,1,0,1.487,1.487A1.5,1.5,0,0,0,12.974,26.34Z" transform="translate(1.997 3.835)" fill="#fff"/>
      <path id="Path_27" data-name="Path 27" d="M24.285,26.34a1.5,1.5,0,1,0,1.487,1.487A1.5,1.5,0,0,0,24.285,26.34Z" transform="translate(4.203 3.835)" fill="#fff"/>
    </g>
  </g>
</svg>
