<svg xmlns="http://www.w3.org/2000/svg" width="72" height="72" viewBox="0 0 72 72">
  <g id="Group_328" data-name="Group 328" transform="translate(-41 -133)">
    <circle id="Ellipse_12" data-name="Ellipse 12" cx="36" cy="36" r="36" transform="translate(41 133)" fill="#007bff"/>
    <g id="star-shine-svgrepo-com" transform="translate(53 145)">
      <path id="Path_13" data-name="Path 13" d="M14.869,10.749C16.262,8.25,16.959,7,18,7s1.738,1.25,3.131,3.749l.361.647a4.034,4.034,0,0,0,.9,1.3,3.761,3.761,0,0,0,1.462.5l.7.158c2.706.612,4.059.918,4.38,1.953s-.6,2.113-2.445,4.27l-.477.558a4.048,4.048,0,0,0-.9,1.3,4.222,4.222,0,0,0,0,1.606l.072.744c.279,2.878.418,4.317-.424,4.956s-2.109.057-4.642-1.11l-.655-.3a3.757,3.757,0,0,0-1.461-.5,3.757,3.757,0,0,0-1.461.5l-.655.3c-2.533,1.166-3.8,1.75-4.643,1.11s-.7-2.079-.424-4.956l.072-.744a4.222,4.222,0,0,0,0-1.606,4.047,4.047,0,0,0-.9-1.3l-.477-.558c-1.845-2.157-2.767-3.236-2.445-4.27s1.675-1.341,4.38-1.953l.7-.158a3.761,3.761,0,0,0,1.462-.5,4.034,4.034,0,0,0,.9-1.3Z" transform="translate(6 6)" fill="none" stroke="#fff" stroke-width="2"/>
      <path id="Path_14" data-name="Path 14" d="M12,2V6.4" transform="translate(12)" fill="none" stroke="#fff" stroke-linecap="round" stroke-width="2" opacity="0.5"/>
      <path id="Path_15" data-name="Path 15" d="M12,20v4.4" transform="translate(12 21.6)" fill="none" stroke="#fff" stroke-linecap="round" stroke-width="2" opacity="0.5"/>
      <path id="Path_16" data-name="Path 16" d="M2,12H6.4" transform="translate(0 12)" fill="none" stroke="#fff" stroke-linecap="round" stroke-width="2" opacity="0.5"/>
      <path id="Path_17" data-name="Path 17" d="M20,12h4.4" transform="translate(21.6 12)" fill="none" stroke="#fff" stroke-linecap="round" stroke-width="2" opacity="0.5"/>
      <path id="Path_18" data-name="Path 18" d="M6,18.412l.755-.755" transform="translate(4.8 18.788)" fill="none" stroke="#fff" stroke-linecap="round" stroke-width="2"/>
      <path id="Path_19" data-name="Path 19" d="M17.657,6.755,18.412,6" transform="translate(18.788 4.8)" fill="none" stroke="#fff" stroke-linecap="round" stroke-width="2"/>
      <path id="Path_20" data-name="Path 20" d="M18.412,18.412l-.755-.755" transform="translate(18.788 18.788)" fill="none" stroke="#fff" stroke-linecap="round" stroke-width="2"/>
      <path id="Path_21" data-name="Path 21" d="M6.755,6.755,6,6" transform="translate(4.8 4.8)" fill="none" stroke="#fff" stroke-linecap="round" stroke-width="2"/>
    </g>
  </g>
</svg>
